%TF.GenerationSoftware,KiCad,Pcbnew,9.0.7*%
%TF.CreationDate,2026-02-04T13:35:24+05:30*%
%TF.ProjectId,MotherPCB,4d6f7468-6572-4504-9342-2e6b69636164,1*%
%TF.SameCoordinates,Original*%
%TF.FileFunction,Soldermask,Top*%
%TF.FilePolarity,Negative*%
%FSLAX46Y46*%
G04 Gerber Fmt 4.6, Leading zero omitted, Abs format (unit mm)*
G04 Created by KiCad (PCBNEW 9.0.7) date 2026-02-04 13:35:24*
%MOMM*%
%LPD*%
G01*
G04 APERTURE LIST*
G04 Aperture macros list*
%AMRoundRect*
0 Rectangle with rounded corners*
0 $1 Rounding radius*
0 $2 $3 $4 $5 $6 $7 $8 $9 X,Y pos of 4 corners*
0 Add a 4 corners polygon primitive as box body*
4,1,4,$2,$3,$4,$5,$6,$7,$8,$9,$2,$3,0*
0 Add four circle primitives for the rounded corners*
1,1,$1+$1,$2,$3*
1,1,$1+$1,$4,$5*
1,1,$1+$1,$6,$7*
1,1,$1+$1,$8,$9*
0 Add four rect primitives between the rounded corners*
20,1,$1+$1,$2,$3,$4,$5,0*
20,1,$1+$1,$4,$5,$6,$7,0*
20,1,$1+$1,$6,$7,$8,$9,0*
20,1,$1+$1,$8,$9,$2,$3,0*%
G04 Aperture macros list end*
%ADD10C,1.600000*%
%ADD11C,1.512000*%
%ADD12C,1.462000*%
%ADD13C,1.412000*%
%ADD14RoundRect,0.102000X-0.604000X-0.604000X0.604000X-0.604000X0.604000X0.604000X-0.604000X0.604000X0*%
%ADD15C,3.554000*%
%ADD16RoundRect,0.150000X0.825000X0.150000X-0.825000X0.150000X-0.825000X-0.150000X0.825000X-0.150000X0*%
%ADD17RoundRect,0.150000X0.150000X-0.825000X0.150000X0.825000X-0.150000X0.825000X-0.150000X-0.825000X0*%
%ADD18R,1.700000X1.700000*%
%ADD19C,1.700000*%
%ADD20RoundRect,0.150000X-0.150000X0.825000X-0.150000X-0.825000X0.150000X-0.825000X0.150000X0.825000X0*%
%ADD21RoundRect,0.102000X0.704000X0.704000X-0.704000X0.704000X-0.704000X-0.704000X0.704000X-0.704000X0*%
%ADD22C,1.612000*%
%ADD23R,1.905000X1.270000*%
%ADD24C,1.900000*%
%ADD25RoundRect,0.102000X0.604000X0.604000X-0.604000X0.604000X-0.604000X-0.604000X0.604000X-0.604000X0*%
%ADD26C,6.204000*%
%ADD27RoundRect,0.102000X-3.000000X-3.000000X3.000000X-3.000000X3.000000X3.000000X-3.000000X3.000000X0*%
%ADD28RoundRect,0.102000X-0.604000X0.604000X-0.604000X-0.604000X0.604000X-0.604000X0.604000X0.604000X0*%
%ADD29R,2.000000X2.000000*%
G04 APERTURE END LIST*
D10*
%TO.C,C4*%
X239000000Y-29000000D03*
X239000000Y-24000000D03*
%TD*%
D11*
%TO.C,U20*%
X187000000Y-46480000D03*
X187000000Y-49020000D03*
X187000000Y-51560000D03*
X187000000Y-54100000D03*
X187000000Y-79500000D03*
X202240000Y-49020000D03*
X192080000Y-89660000D03*
X187000000Y-56640000D03*
X187000000Y-59180000D03*
D12*
X190050000Y-50290000D03*
D11*
X187000000Y-61720000D03*
X187000000Y-64260000D03*
X187000000Y-66800000D03*
X187000000Y-69340000D03*
X187000000Y-71880000D03*
X187000000Y-74420000D03*
X187000000Y-76960000D03*
X202240000Y-76960000D03*
X202240000Y-74420000D03*
X202240000Y-71880000D03*
X202240000Y-69340000D03*
X202240000Y-66800000D03*
X202240000Y-64260000D03*
X202240000Y-61720000D03*
X202240000Y-59180000D03*
X202240000Y-56640000D03*
X202240000Y-54100000D03*
X202240000Y-51560000D03*
X187000000Y-82040000D03*
X187000000Y-84580000D03*
X187000000Y-87120000D03*
X187000000Y-89660000D03*
X187000000Y-92200000D03*
X187000000Y-94740000D03*
X187000000Y-97280000D03*
X187000000Y-99820000D03*
X187000000Y-102360000D03*
X202240000Y-102360000D03*
X202240000Y-99820000D03*
X202240000Y-97280000D03*
X202240000Y-94740000D03*
X202240000Y-92200000D03*
X202240000Y-89660000D03*
X202240000Y-87120000D03*
X202240000Y-84580000D03*
X202240000Y-82040000D03*
D12*
X190050000Y-55370000D03*
X190050000Y-52830000D03*
D11*
X187000000Y-43940000D03*
X202240000Y-79500000D03*
X202240000Y-46480000D03*
X194620000Y-89660000D03*
D13*
X197790000Y-58910000D03*
X197790000Y-56910000D03*
D11*
X199700000Y-89660000D03*
X197160000Y-89660000D03*
D13*
X199790000Y-56910000D03*
X199790000Y-58910000D03*
X195790000Y-58910000D03*
X195790000Y-56910000D03*
D12*
X190050000Y-57910000D03*
X190050000Y-60450000D03*
D11*
X189540000Y-89660000D03*
X202240000Y-43940000D03*
X199700000Y-46480000D03*
%TD*%
D14*
%TO.C,J1*%
X221722600Y-125011600D03*
D13*
X224222600Y-125011600D03*
X226222600Y-125011600D03*
X228722600Y-125011600D03*
X229222600Y-123511600D03*
X227222600Y-123511600D03*
X225222600Y-123511600D03*
X223222600Y-123511600D03*
X221222600Y-123511600D03*
D15*
X218652600Y-127011600D03*
X231792600Y-127011600D03*
%TD*%
D14*
%TO.C,J14*%
X178722600Y-125011600D03*
D13*
X181222600Y-125011600D03*
X183222600Y-125011600D03*
X185722600Y-125011600D03*
X186222600Y-123511600D03*
X184222600Y-123511600D03*
X182222600Y-123511600D03*
X180222600Y-123511600D03*
X178222600Y-123511600D03*
D15*
X175652600Y-127011600D03*
X188792600Y-127011600D03*
%TD*%
D10*
%TO.C,R16*%
X154000000Y-130000000D03*
X154000000Y-137620000D03*
%TD*%
D16*
%TO.C,U16*%
X164505000Y-102405000D03*
X164505000Y-101135000D03*
X164505000Y-99865000D03*
X164505000Y-98595000D03*
X159555000Y-98595000D03*
X159555000Y-99865000D03*
X159555000Y-101135000D03*
X159555000Y-102405000D03*
%TD*%
D17*
%TO.C,U9*%
X179595000Y-36475000D03*
X180865000Y-36475000D03*
X182135000Y-36475000D03*
X183405000Y-36475000D03*
X183405000Y-31525000D03*
X182135000Y-31525000D03*
X180865000Y-31525000D03*
X179595000Y-31525000D03*
%TD*%
D10*
%TO.C,C9*%
X213500000Y-29000000D03*
X213500000Y-24000000D03*
%TD*%
D18*
%TO.C,J6*%
X150000000Y-109500000D03*
D19*
X152540000Y-109500000D03*
X155080000Y-109500000D03*
%TD*%
D10*
%TO.C,R13*%
X158500000Y-113000000D03*
X158500000Y-120620000D03*
%TD*%
D20*
%TO.C,U15*%
X180627600Y-110536600D03*
X179357600Y-110536600D03*
X178087600Y-110536600D03*
X176817600Y-110536600D03*
X176817600Y-115486600D03*
X178087600Y-115486600D03*
X179357600Y-115486600D03*
X180627600Y-115486600D03*
%TD*%
D17*
%TO.C,U6*%
X197595000Y-36975000D03*
X198865000Y-36975000D03*
X200135000Y-36975000D03*
X201405000Y-36975000D03*
X201405000Y-32025000D03*
X200135000Y-32025000D03*
X198865000Y-32025000D03*
X197595000Y-32025000D03*
%TD*%
%TO.C,U8*%
X172595000Y-36475000D03*
X173865000Y-36475000D03*
X175135000Y-36475000D03*
X176405000Y-36475000D03*
X176405000Y-31525000D03*
X175135000Y-31525000D03*
X173865000Y-31525000D03*
X172595000Y-31525000D03*
%TD*%
D10*
%TO.C,R12*%
X154500000Y-113000000D03*
X154500000Y-120620000D03*
%TD*%
%TO.C,R21*%
X164000000Y-22810000D03*
X164000000Y-15190000D03*
%TD*%
%TO.C,C15*%
X168030000Y-67500000D03*
X163030000Y-67500000D03*
%TD*%
D21*
%TO.C,U18*%
X241472500Y-90465000D03*
D22*
X241472500Y-87925000D03*
X241472500Y-85385000D03*
X241472500Y-82845000D03*
X241472500Y-80305000D03*
X241472500Y-77765000D03*
X241472500Y-75225000D03*
X241472500Y-72685000D03*
X241472500Y-70145000D03*
X241472500Y-67605000D03*
X241472500Y-65065000D03*
X241472500Y-62525000D03*
X241472500Y-59985000D03*
X241472500Y-57445000D03*
X241472500Y-54905000D03*
X241472500Y-52365000D03*
X241472500Y-49825000D03*
X241472500Y-47285000D03*
X241472500Y-44745000D03*
X216072500Y-90465000D03*
X216072500Y-87925000D03*
X216072500Y-85385000D03*
X216072500Y-82845000D03*
X216072500Y-80305000D03*
X216072500Y-77765000D03*
X216072500Y-75225000D03*
X216072500Y-72685000D03*
X216072500Y-70145000D03*
X216072500Y-67605000D03*
X216072500Y-65065000D03*
X216072500Y-62525000D03*
X216072500Y-59985000D03*
X216072500Y-57445000D03*
X216072500Y-54905000D03*
X216072500Y-52365000D03*
X216072500Y-49825000D03*
X216072500Y-47285000D03*
X216072500Y-44745000D03*
%TD*%
D10*
%TO.C,R1*%
X239000000Y-39500000D03*
X239000000Y-31880000D03*
%TD*%
D17*
%TO.C,U7*%
X204095000Y-36975000D03*
X205365000Y-36975000D03*
X206635000Y-36975000D03*
X207905000Y-36975000D03*
X207905000Y-32025000D03*
X206635000Y-32025000D03*
X205365000Y-32025000D03*
X204095000Y-32025000D03*
%TD*%
D23*
%TO.C,I2*%
X243500000Y-116000000D03*
D24*
X243500000Y-118540000D03*
X243500000Y-121080000D03*
X243500000Y-123620000D03*
X243500000Y-126160000D03*
X243500000Y-128700000D03*
X253180000Y-112600000D03*
X255720000Y-112600000D03*
X258260000Y-112600000D03*
%TD*%
D10*
%TO.C,C14*%
X168030000Y-82500000D03*
X168030000Y-77500000D03*
%TD*%
D18*
%TO.C,J4*%
X160000000Y-22090000D03*
D19*
X160000000Y-19550000D03*
X160000000Y-17010000D03*
%TD*%
D10*
%TO.C,C18*%
X167530000Y-98000000D03*
X167530000Y-103000000D03*
%TD*%
%TO.C,R5*%
X159530000Y-52310000D03*
X159530000Y-44690000D03*
%TD*%
D18*
%TO.C,J5*%
X147988600Y-16606900D03*
D19*
X147988600Y-19146900D03*
X147988600Y-21686900D03*
X147988600Y-24226900D03*
X147988600Y-26766900D03*
%TD*%
D10*
%TO.C,R15*%
X149690000Y-126000000D03*
X157310000Y-126000000D03*
%TD*%
D18*
%TO.C,J7*%
X145500000Y-109500000D03*
D19*
X145500000Y-112040000D03*
X145500000Y-114580000D03*
%TD*%
D10*
%TO.C,R20*%
X163810000Y-26000000D03*
X156190000Y-26000000D03*
%TD*%
%TO.C,R11*%
X182500000Y-79810000D03*
X182500000Y-72190000D03*
%TD*%
%TO.C,C10*%
X187665000Y-28500000D03*
X187665000Y-23500000D03*
%TD*%
%TO.C,C3*%
X212722600Y-123541600D03*
X212722600Y-118541600D03*
%TD*%
%TO.C,C17*%
X184222600Y-111041600D03*
X189222600Y-111041600D03*
%TD*%
D16*
%TO.C,U12*%
X164505000Y-80905000D03*
X164505000Y-79635000D03*
X164505000Y-78365000D03*
X164505000Y-77095000D03*
X159555000Y-77095000D03*
X159555000Y-78365000D03*
X159555000Y-79635000D03*
X159555000Y-80905000D03*
%TD*%
D18*
%TO.C,J8*%
X168000000Y-115000000D03*
D19*
X168000000Y-117540000D03*
X168000000Y-120080000D03*
X168000000Y-122620000D03*
%TD*%
D25*
%TO.C,J11*%
X181000000Y-26530000D03*
D13*
X178500000Y-26530000D03*
X176500000Y-26530000D03*
X174000000Y-26530000D03*
X173500000Y-28030000D03*
X175500000Y-28030000D03*
X177500000Y-28030000D03*
X179500000Y-28030000D03*
X181500000Y-28030000D03*
D15*
X184070000Y-24530000D03*
X170930000Y-24530000D03*
%TD*%
D10*
%TO.C,C7*%
X234222600Y-123500000D03*
X234222600Y-118500000D03*
%TD*%
D26*
%TO.C,J21*%
X271765400Y-104401000D03*
D27*
X264565400Y-104401000D03*
%TD*%
D10*
%TO.C,R2*%
X224032600Y-119041600D03*
X216412600Y-119041600D03*
%TD*%
%TO.C,R3*%
X213500000Y-39310000D03*
X213500000Y-31690000D03*
%TD*%
%TO.C,R10*%
X202532600Y-119041600D03*
X194912600Y-119041600D03*
%TD*%
D20*
%TO.C,U5*%
X222627600Y-110566600D03*
X221357600Y-110566600D03*
X220087600Y-110566600D03*
X218817600Y-110566600D03*
X218817600Y-115516600D03*
X220087600Y-115516600D03*
X221357600Y-115516600D03*
X222627600Y-115516600D03*
%TD*%
D23*
%TO.C,I1*%
X244000000Y-19110800D03*
D24*
X244000000Y-21650800D03*
X244000000Y-24190800D03*
X244000000Y-26730800D03*
X244000000Y-29270800D03*
X244000000Y-31810800D03*
X253680000Y-15710800D03*
X256220000Y-15710800D03*
X258760000Y-15710800D03*
%TD*%
D10*
%TO.C,R9*%
X156000000Y-22810000D03*
X156000000Y-15190000D03*
%TD*%
%TO.C,C21*%
X204722600Y-111041600D03*
X209722600Y-111041600D03*
%TD*%
%TO.C,C13*%
X168030000Y-55000000D03*
X168030000Y-60000000D03*
%TD*%
%TO.C,C6*%
X225722600Y-111041600D03*
X230722600Y-111041600D03*
%TD*%
D16*
%TO.C,U17*%
X168505000Y-95405000D03*
X168505000Y-94135000D03*
X168505000Y-92865000D03*
X168505000Y-91595000D03*
X163555000Y-91595000D03*
X163555000Y-92865000D03*
X163555000Y-94135000D03*
X163555000Y-95405000D03*
%TD*%
D18*
%TO.C,J2*%
X145500000Y-118500000D03*
D19*
X145500000Y-121040000D03*
X145500000Y-123580000D03*
%TD*%
D10*
%TO.C,R8*%
X160030000Y-95810000D03*
X160030000Y-88190000D03*
%TD*%
D28*
%TO.C,J13*%
X154560000Y-71500000D03*
D13*
X154560000Y-74000000D03*
X154560000Y-76000000D03*
X154560000Y-78500000D03*
X156060000Y-79000000D03*
X156060000Y-77000000D03*
X156060000Y-75000000D03*
X156060000Y-73000000D03*
X156060000Y-71000000D03*
D15*
X152560000Y-68430000D03*
X152560000Y-81570000D03*
%TD*%
D20*
%TO.C,U14*%
X187627600Y-114536600D03*
X186357600Y-114536600D03*
X185087600Y-114536600D03*
X183817600Y-114536600D03*
X183817600Y-119486600D03*
X185087600Y-119486600D03*
X186357600Y-119486600D03*
X187627600Y-119486600D03*
%TD*%
D14*
%TO.C,J18*%
X200222600Y-125041600D03*
D13*
X202722600Y-125041600D03*
X204722600Y-125041600D03*
X207222600Y-125041600D03*
X207722600Y-123541600D03*
X205722600Y-123541600D03*
X203722600Y-123541600D03*
X201722600Y-123541600D03*
X199722600Y-123541600D03*
D15*
X197152600Y-127041600D03*
X210292600Y-127041600D03*
%TD*%
D18*
%TO.C,J22*%
X149000000Y-129500000D03*
D19*
X146460000Y-129500000D03*
X143920000Y-129500000D03*
%TD*%
D25*
%TO.C,J9*%
X231500000Y-27000000D03*
D13*
X229000000Y-27000000D03*
X227000000Y-27000000D03*
X224500000Y-27000000D03*
X224000000Y-28500000D03*
X226000000Y-28500000D03*
X228000000Y-28500000D03*
X230000000Y-28500000D03*
X232000000Y-28500000D03*
D15*
X234570000Y-25000000D03*
X221430000Y-25000000D03*
%TD*%
D10*
%TO.C,C11*%
X168500000Y-36500000D03*
X168500000Y-31500000D03*
%TD*%
%TO.C,R7*%
X181532600Y-119011600D03*
X173912600Y-119011600D03*
%TD*%
D18*
%TO.C,J16*%
X163000000Y-115000000D03*
D19*
X163000000Y-117540000D03*
X163000000Y-120080000D03*
%TD*%
D20*
%TO.C,U19*%
X208627600Y-114566600D03*
X207357600Y-114566600D03*
X206087600Y-114566600D03*
X204817600Y-114566600D03*
X204817600Y-119516600D03*
X206087600Y-119516600D03*
X207357600Y-119516600D03*
X208627600Y-119516600D03*
%TD*%
D10*
%TO.C,C2*%
X173500000Y-110000000D03*
X168500000Y-110000000D03*
%TD*%
%TO.C,R4*%
X187500000Y-38810000D03*
X187500000Y-31190000D03*
%TD*%
%TO.C,C5*%
X219000000Y-37500000D03*
X219000000Y-32500000D03*
%TD*%
D16*
%TO.C,U11*%
X168005000Y-51905000D03*
X168005000Y-50635000D03*
X168005000Y-49365000D03*
X168005000Y-48095000D03*
X163055000Y-48095000D03*
X163055000Y-49365000D03*
X163055000Y-50635000D03*
X163055000Y-51905000D03*
%TD*%
D25*
%TO.C,J10*%
X206500000Y-27030000D03*
D13*
X204000000Y-27030000D03*
X202000000Y-27030000D03*
X199500000Y-27030000D03*
X199000000Y-28530000D03*
X201000000Y-28530000D03*
X203000000Y-28530000D03*
X205000000Y-28530000D03*
X207000000Y-28530000D03*
D15*
X209570000Y-25030000D03*
X196430000Y-25030000D03*
%TD*%
D10*
%TO.C,C20*%
X168500000Y-88500000D03*
X163500000Y-88500000D03*
%TD*%
%TO.C,C12*%
X167530000Y-45000000D03*
X162530000Y-45000000D03*
%TD*%
D20*
%TO.C,U4*%
X230127600Y-114566600D03*
X228857600Y-114566600D03*
X227587600Y-114566600D03*
X226317600Y-114566600D03*
X226317600Y-119516600D03*
X227587600Y-119516600D03*
X228857600Y-119516600D03*
X230127600Y-119516600D03*
%TD*%
%TO.C,U21*%
X201127600Y-110566600D03*
X199857600Y-110566600D03*
X198587600Y-110566600D03*
X197317600Y-110566600D03*
X197317600Y-115516600D03*
X198587600Y-115516600D03*
X199857600Y-115516600D03*
X201127600Y-115516600D03*
%TD*%
D17*
%TO.C,U3*%
X229500000Y-37450000D03*
X230770000Y-37450000D03*
X232040000Y-37450000D03*
X233310000Y-37450000D03*
X233310000Y-32500000D03*
X232040000Y-32500000D03*
X230770000Y-32500000D03*
X229500000Y-32500000D03*
%TD*%
D28*
%TO.C,J12*%
X154530000Y-49000000D03*
D13*
X154530000Y-51500000D03*
X154530000Y-53500000D03*
X154530000Y-56000000D03*
X156030000Y-56500000D03*
X156030000Y-54500000D03*
X156030000Y-52500000D03*
X156030000Y-50500000D03*
X156030000Y-48500000D03*
D15*
X152530000Y-45930000D03*
X152530000Y-59070000D03*
%TD*%
D10*
%TO.C,R6*%
X160030000Y-74810000D03*
X160030000Y-67190000D03*
%TD*%
D18*
%TO.C,J3*%
X152500000Y-35000000D03*
D19*
X149960000Y-35000000D03*
X147420000Y-35000000D03*
%TD*%
D18*
%TO.C,J17*%
X263350000Y-136000000D03*
D19*
X260810000Y-136000000D03*
X258270000Y-136000000D03*
X255730000Y-136000000D03*
X253190000Y-136000000D03*
X250650000Y-136000000D03*
%TD*%
D16*
%TO.C,U10*%
X164505000Y-58405000D03*
X164505000Y-57135000D03*
X164505000Y-55865000D03*
X164505000Y-54595000D03*
X159555000Y-54595000D03*
X159555000Y-55865000D03*
X159555000Y-57135000D03*
X159555000Y-58405000D03*
%TD*%
D10*
%TO.C,R14*%
X150500000Y-120620000D03*
X150500000Y-113000000D03*
%TD*%
D18*
%TO.C,J20*%
X175500000Y-50000000D03*
D19*
X178040000Y-50000000D03*
X175500000Y-52540000D03*
X178040000Y-52540000D03*
X175500000Y-55080000D03*
X178040000Y-55080000D03*
X175500000Y-57620000D03*
X178040000Y-57620000D03*
X175500000Y-60160000D03*
X178040000Y-60160000D03*
X175500000Y-62700000D03*
X178040000Y-62700000D03*
X175500000Y-65240000D03*
X178040000Y-65240000D03*
X175500000Y-67780000D03*
X178040000Y-67780000D03*
X175500000Y-70320000D03*
X178040000Y-70320000D03*
X175500000Y-72860000D03*
X178040000Y-72860000D03*
X175500000Y-75400000D03*
X178040000Y-75400000D03*
X175500000Y-77940000D03*
X178040000Y-77940000D03*
X175500000Y-80480000D03*
X178040000Y-80480000D03*
X175500000Y-83020000D03*
X178040000Y-83020000D03*
X175500000Y-85560000D03*
X178040000Y-85560000D03*
X175500000Y-88100000D03*
X178040000Y-88100000D03*
X175500000Y-90640000D03*
X178040000Y-90640000D03*
X175500000Y-93180000D03*
X178040000Y-93180000D03*
X175500000Y-95720000D03*
X178040000Y-95720000D03*
X175500000Y-98260000D03*
X178040000Y-98260000D03*
%TD*%
D10*
%TO.C,C8*%
X194000000Y-37000000D03*
X194000000Y-32000000D03*
%TD*%
D16*
%TO.C,U13*%
X168505000Y-74405000D03*
X168505000Y-73135000D03*
X168505000Y-71865000D03*
X168505000Y-70595000D03*
X163555000Y-70595000D03*
X163555000Y-71865000D03*
X163555000Y-73135000D03*
X163555000Y-74405000D03*
%TD*%
D29*
%TO.C,P1*%
X258120400Y-49056000D03*
X277160400Y-49056000D03*
X257960400Y-93856000D03*
X277560400Y-93856000D03*
%TD*%
D28*
%TO.C,J15*%
X154560000Y-92500000D03*
D13*
X154560000Y-95000000D03*
X154560000Y-97000000D03*
X154560000Y-99500000D03*
X156060000Y-100000000D03*
X156060000Y-98000000D03*
X156060000Y-96000000D03*
X156060000Y-94000000D03*
X156060000Y-92000000D03*
D15*
X152560000Y-89430000D03*
X152560000Y-102570000D03*
%TD*%
D10*
%TO.C,C16*%
X191222600Y-123511600D03*
X191222600Y-118511600D03*
%TD*%
D18*
%TO.C,J23*%
X239000000Y-136280000D03*
D19*
X239000000Y-133740000D03*
X239000000Y-131200000D03*
X239000000Y-128660000D03*
X239000000Y-126120000D03*
X239000000Y-123580000D03*
X239000000Y-121040000D03*
X239000000Y-118500000D03*
%TD*%
D17*
%TO.C,U2*%
X222595000Y-37475000D03*
X223865000Y-37475000D03*
X225135000Y-37475000D03*
X226405000Y-37475000D03*
X226405000Y-32525000D03*
X225135000Y-32525000D03*
X223865000Y-32525000D03*
X222595000Y-32525000D03*
%TD*%
D18*
%TO.C,J19*%
X264100000Y-37500000D03*
D19*
X261560000Y-37500000D03*
X259020000Y-37500000D03*
X256480000Y-37500000D03*
X253940000Y-37500000D03*
X251400000Y-37500000D03*
%TD*%
M02*
