M48
; DRILL file {KiCad 9.0.7} date 2026-02-04T13:46:45+0530
; FORMAT={-:-/ absolute / metric / decimal}
; #@! TF.CreationDate,2026-02-04T13:46:45+05:30
; #@! TF.GenerationSoftware,Kicad,Pcbnew,9.0.7
; #@! TF.FileFunction,Plated,1,2,PTH
FMAT,2
METRIC
; #@! TA.AperFunction,Plated,PTH,ViaDrill
T1C0.300
; #@! TA.AperFunction,Plated,PTH,ComponentDrill
T2C0.700
; #@! TA.AperFunction,Plated,PTH,ComponentDrill
T3C0.750
; #@! TA.AperFunction,Plated,PTH,ComponentDrill
T4C0.762
; #@! TA.AperFunction,Plated,PTH,ComponentDrill
T5C0.800
; #@! TA.AperFunction,Plated,PTH,ComponentDrill
T6C0.900
; #@! TA.AperFunction,Plated,PTH,ComponentDrill
T7C1.000
; #@! TA.AperFunction,Plated,PTH,ComponentDrill
T8C2.300
; #@! TA.AperFunction,Plated,PTH,ComponentDrill
T9C4.550
%
G90
G05
T1
X148.0Y-120.0
X155.5Y-108.017
X161.5Y-40.5
X164.166Y-52.922
X165.912Y-55.299
X166.064Y-99.813
X166.556Y-73.288
X166.937Y-95.542
X166.963Y-56.035
X167.066Y-73.972
X172.957Y-102.46
X173.0Y-42.5
X173.491Y-73.019
X173.5Y-105.0
X174.0Y-54.04
X174.5Y-40.5
X176.822Y-42.355
X177.399Y-39.661
X178.805Y-36.601
X179.816Y-16.372
X181.0Y-30.0
X182.218Y-112.525
X183.504Y-90.907
X184.117Y-86.213
X184.733Y-105.474
X184.816Y-55.13
X185.326Y-91.702
X185.425Y-59.169
X185.582Y-112.732
X187.29Y-78.241
X188.169Y-106.502
X188.798Y-13.022
X188.974Y-43.204
X188.974Y-73.019
X191.984Y-55.37
X192.306Y-114.758
X192.309Y-109.0
X193.5Y-27.303
X193.932Y-120.078
X194.735Y-121.077
X197.449Y-61.888
X200.253Y-61.093
X200.773Y-16.372
X201.653Y-42.5
X202.765Y-36.975
X204.0Y-51.56
X206.061Y-30.561
X206.777Y-111.664
X207.5Y-34.5
X208.94Y-109.003
X209.428Y-37.567
X209.754Y-82.564
X209.754Y-94.355
X210.5Y-36.5
X213.534Y-111.777
X214.061Y-114.231
X214.5Y-128.0
X218.434Y-58.413
X223.933Y-51.358
X224.467Y-36.158
X228.026Y-37.052
X228.062Y-78.981
X231.0Y-31.0
X233.225Y-96.87
X233.705Y-99.853
X234.017Y-94.846
X235.488Y-120.81
X235.9Y-87.925
X235.901Y-93.888
X236.311Y-81.575
X237.014Y-117.965
X255.5Y-107.0
T2
X154.53Y-49.0
X154.53Y-51.5
X154.53Y-53.5
X154.53Y-56.0
X154.56Y-71.5
X154.56Y-74.0
X154.56Y-76.0
X154.56Y-78.5
X154.56Y-92.5
X154.56Y-95.0
X154.56Y-97.0
X154.56Y-99.5
X156.03Y-48.5
X156.03Y-50.5
X156.03Y-52.5
X156.03Y-54.5
X156.03Y-56.5
X156.06Y-71.0
X156.06Y-73.0
X156.06Y-75.0
X156.06Y-77.0
X156.06Y-79.0
X156.06Y-92.0
X156.06Y-94.0
X156.06Y-96.0
X156.06Y-98.0
X156.06Y-100.0
X173.5Y-28.03
X174.0Y-26.53
X175.5Y-28.03
X176.5Y-26.53
X177.5Y-28.03
X178.223Y-123.512
X178.5Y-26.53
X178.723Y-125.012
X179.5Y-28.03
X180.223Y-123.512
X181.0Y-26.53
X181.223Y-125.012
X181.5Y-28.03
X182.223Y-123.512
X183.223Y-125.012
X184.223Y-123.512
X185.723Y-125.012
X186.223Y-123.512
X195.79Y-56.91
X195.79Y-58.91
X197.79Y-56.91
X197.79Y-58.91
X199.0Y-28.53
X199.5Y-27.03
X199.723Y-123.542
X199.79Y-56.91
X199.79Y-58.91
X200.223Y-125.042
X201.0Y-28.53
X201.723Y-123.542
X202.0Y-27.03
X202.723Y-125.042
X203.0Y-28.53
X203.723Y-123.542
X204.0Y-27.03
X204.723Y-125.042
X205.0Y-28.53
X205.723Y-123.542
X206.5Y-27.03
X207.0Y-28.53
X207.223Y-125.042
X207.723Y-123.542
X221.223Y-123.512
X221.723Y-125.012
X223.223Y-123.512
X224.0Y-28.5
X224.223Y-125.012
X224.5Y-27.0
X225.223Y-123.512
X226.0Y-28.5
X226.223Y-125.012
X227.0Y-27.0
X227.223Y-123.512
X228.0Y-28.5
X228.723Y-125.012
X229.0Y-27.0
X229.223Y-123.512
X230.0Y-28.5
X231.5Y-27.0
X232.0Y-28.5
T3
X190.05Y-50.29
X190.05Y-52.83
X190.05Y-55.37
X190.05Y-57.91
X190.05Y-60.45
T4
X257.96Y-93.856
X258.12Y-49.056
X277.16Y-49.056
X277.56Y-93.856
T5
X149.69Y-126.0
X150.5Y-113.0
X150.5Y-120.62
X154.0Y-130.0
X154.0Y-137.62
X154.5Y-113.0
X154.5Y-120.62
X156.0Y-15.19
X156.0Y-22.81
X156.19Y-26.0
X157.31Y-126.0
X158.5Y-113.0
X158.5Y-120.62
X159.53Y-44.69
X159.53Y-52.31
X160.03Y-67.19
X160.03Y-74.81
X160.03Y-88.19
X160.03Y-95.81
X162.53Y-45.0
X163.03Y-67.5
X163.5Y-88.5
X163.81Y-26.0
X164.0Y-15.19
X164.0Y-22.81
X167.53Y-45.0
X167.53Y-98.0
X167.53Y-103.0
X168.03Y-55.0
X168.03Y-60.0
X168.03Y-67.5
X168.03Y-77.5
X168.03Y-82.5
X168.5Y-31.5
X168.5Y-36.5
X168.5Y-88.5
X168.5Y-110.0
X173.5Y-110.0
X173.913Y-119.012
X181.533Y-119.012
X182.5Y-72.19
X182.5Y-79.81
X184.223Y-111.042
X187.0Y-43.94
X187.0Y-46.48
X187.0Y-49.02
X187.0Y-51.56
X187.0Y-54.1
X187.0Y-56.64
X187.0Y-59.18
X187.0Y-61.72
X187.0Y-64.26
X187.0Y-66.8
X187.0Y-69.34
X187.0Y-71.88
X187.0Y-74.42
X187.0Y-76.96
X187.0Y-79.5
X187.0Y-82.04
X187.0Y-84.58
X187.0Y-87.12
X187.0Y-89.66
X187.0Y-92.2
X187.0Y-94.74
X187.0Y-97.28
X187.0Y-99.82
X187.0Y-102.36
X187.5Y-31.19
X187.5Y-38.81
X187.665Y-23.5
X187.665Y-28.5
X189.223Y-111.042
X189.54Y-89.66
X191.223Y-118.512
X191.223Y-123.512
X192.08Y-89.66
X194.0Y-32.0
X194.0Y-37.0
X194.62Y-89.66
X194.913Y-119.042
X197.16Y-89.66
X199.7Y-46.48
X199.7Y-89.66
X202.24Y-43.94
X202.24Y-46.48
X202.24Y-49.02
X202.24Y-51.56
X202.24Y-54.1
X202.24Y-56.64
X202.24Y-59.18
X202.24Y-61.72
X202.24Y-64.26
X202.24Y-66.8
X202.24Y-69.34
X202.24Y-71.88
X202.24Y-74.42
X202.24Y-76.96
X202.24Y-79.5
X202.24Y-82.04
X202.24Y-84.58
X202.24Y-87.12
X202.24Y-89.66
X202.24Y-92.2
X202.24Y-94.74
X202.24Y-97.28
X202.24Y-99.82
X202.24Y-102.36
X202.533Y-119.042
X204.723Y-111.042
X209.723Y-111.042
X212.723Y-118.542
X212.723Y-123.542
X213.5Y-24.0
X213.5Y-29.0
X213.5Y-31.69
X213.5Y-39.31
X216.413Y-119.042
X219.0Y-32.5
X219.0Y-37.5
X224.033Y-119.042
X225.723Y-111.042
X230.723Y-111.042
X234.223Y-118.5
X234.223Y-123.5
X239.0Y-24.0
X239.0Y-29.0
X239.0Y-31.88
X239.0Y-39.5
T6
X216.072Y-44.745
X216.072Y-47.285
X216.072Y-49.825
X216.072Y-52.365
X216.072Y-54.905
X216.072Y-57.445
X216.072Y-59.985
X216.072Y-62.525
X216.072Y-65.065
X216.072Y-67.605
X216.072Y-70.145
X216.072Y-72.685
X216.072Y-75.225
X216.072Y-77.765
X216.072Y-80.305
X216.072Y-82.845
X216.072Y-85.385
X216.072Y-87.925
X216.072Y-90.465
X241.472Y-44.745
X241.472Y-47.285
X241.472Y-49.825
X241.472Y-52.365
X241.472Y-54.905
X241.472Y-57.445
X241.472Y-59.985
X241.472Y-62.525
X241.472Y-65.065
X241.472Y-67.605
X241.472Y-70.145
X241.472Y-72.685
X241.472Y-75.225
X241.472Y-77.765
X241.472Y-80.305
X241.472Y-82.845
X241.472Y-85.385
X241.472Y-87.925
X241.472Y-90.465
T7
X143.92Y-129.5
X145.5Y-109.5
X145.5Y-112.04
X145.5Y-114.58
X145.5Y-118.5
X145.5Y-121.04
X145.5Y-123.58
X146.46Y-129.5
X147.42Y-35.0
X147.989Y-16.607
X147.989Y-19.147
X147.989Y-21.687
X147.989Y-24.227
X147.989Y-26.767
X149.0Y-129.5
X149.96Y-35.0
X150.0Y-109.5
X152.5Y-35.0
X152.54Y-109.5
X155.08Y-109.5
X160.0Y-17.01
X160.0Y-19.55
X160.0Y-22.09
X163.0Y-115.0
X163.0Y-117.54
X163.0Y-120.08
X168.0Y-115.0
X168.0Y-117.54
X168.0Y-120.08
X168.0Y-122.62
X175.5Y-50.0
X175.5Y-52.54
X175.5Y-55.08
X175.5Y-57.62
X175.5Y-60.16
X175.5Y-62.7
X175.5Y-65.24
X175.5Y-67.78
X175.5Y-70.32
X175.5Y-72.86
X175.5Y-75.4
X175.5Y-77.94
X175.5Y-80.48
X175.5Y-83.02
X175.5Y-85.56
X175.5Y-88.1
X175.5Y-90.64
X175.5Y-93.18
X175.5Y-95.72
X175.5Y-98.26
X178.04Y-50.0
X178.04Y-52.54
X178.04Y-55.08
X178.04Y-57.62
X178.04Y-60.16
X178.04Y-62.7
X178.04Y-65.24
X178.04Y-67.78
X178.04Y-70.32
X178.04Y-72.86
X178.04Y-75.4
X178.04Y-77.94
X178.04Y-80.48
X178.04Y-83.02
X178.04Y-85.56
X178.04Y-88.1
X178.04Y-90.64
X178.04Y-93.18
X178.04Y-95.72
X178.04Y-98.26
X239.0Y-118.5
X239.0Y-121.04
X239.0Y-123.58
X239.0Y-126.12
X239.0Y-128.66
X239.0Y-131.2
X239.0Y-133.74
X239.0Y-136.28
X243.5Y-116.0
X243.5Y-118.54
X243.5Y-121.08
X243.5Y-123.62
X243.5Y-126.16
X243.5Y-128.7
X244.0Y-19.111
X244.0Y-21.651
X244.0Y-24.191
X244.0Y-26.731
X244.0Y-29.271
X244.0Y-31.811
X250.65Y-136.0
X251.4Y-37.5
X253.18Y-112.6
X253.19Y-136.0
X253.68Y-15.711
X253.94Y-37.5
X255.72Y-112.6
X255.73Y-136.0
X256.22Y-15.711
X256.48Y-37.5
X258.26Y-112.6
X258.27Y-136.0
X258.76Y-15.711
X259.02Y-37.5
X260.81Y-136.0
X261.56Y-37.5
X263.35Y-136.0
X264.1Y-37.5
T8
X152.53Y-45.93
X152.53Y-59.07
X152.56Y-68.43
X152.56Y-81.57
X152.56Y-89.43
X152.56Y-102.57
X170.93Y-24.53
X175.653Y-127.012
X184.07Y-24.53
X188.793Y-127.012
X196.43Y-25.03
X197.153Y-127.042
X209.57Y-25.03
X210.293Y-127.042
X218.653Y-127.012
X221.43Y-25.0
X231.793Y-127.012
X234.57Y-25.0
T9
X264.565Y-104.401
X271.765Y-104.401
M30
