M48
; DRILL file {KiCad 9.0.7} date 2026-02-09T18:38:30+0530
; FORMAT={-:-/ absolute / metric / decimal}
; #@! TF.CreationDate,2026-02-09T18:38:30+05:30
; #@! TF.GenerationSoftware,Kicad,Pcbnew,9.0.7
; #@! TF.FileFunction,Plated,1,2,PTH
FMAT,2
METRIC
; #@! TA.AperFunction,Plated,PTH,ViaDrill
T1C0.300
; #@! TA.AperFunction,Plated,PTH,ComponentDrill
T2C0.700
; #@! TA.AperFunction,Plated,PTH,ComponentDrill
T3C0.800
; #@! TA.AperFunction,Plated,PTH,ComponentDrill
T4C1.000
; #@! TA.AperFunction,Plated,PTH,ComponentDrill
T5C2.300
%
G90
G05
T1
X148.5Y-98.0
X168.896Y-97.658
X171.222Y-111.368
T2
X145.03Y-101.0
X145.03Y-103.5
X145.03Y-105.5
X145.03Y-108.0
X146.53Y-100.5
X146.53Y-102.5
X146.53Y-104.5
X146.53Y-106.5
X146.53Y-108.5
T3
X155.5Y-105.19
X155.5Y-112.81
T4
X173.525Y-98.175
X173.525Y-100.715
X173.525Y-103.255
X173.525Y-105.795
X173.525Y-108.335
X173.525Y-110.875
T5
X143.03Y-97.93
X143.03Y-111.07
M30
