%TF.GenerationSoftware,KiCad,Pcbnew,9.0.7*%
%TF.CreationDate,2026-02-09T18:38:45+05:30*%
%TF.ProjectId,ThermocouplePCB,54686572-6d6f-4636-9f75-706c65504342,rev?*%
%TF.SameCoordinates,Original*%
%TF.FileFunction,Copper,L2,Bot*%
%TF.FilePolarity,Positive*%
%FSLAX46Y46*%
G04 Gerber Fmt 4.6, Leading zero omitted, Abs format (unit mm)*
G04 Created by KiCad (PCBNEW 9.0.7) date 2026-02-09 18:38:45*
%MOMM*%
%LPD*%
G01*
G04 APERTURE LIST*
%TA.AperFunction,ComponentPad*%
%ADD10R,1.208000X1.208000*%
%TD*%
%TA.AperFunction,ComponentPad*%
%ADD11C,1.208000*%
%TD*%
%TA.AperFunction,ComponentPad*%
%ADD12C,3.350000*%
%TD*%
%TA.AperFunction,ComponentPad*%
%ADD13C,1.600000*%
%TD*%
%TA.AperFunction,ComponentPad*%
%ADD14O,1.600000X1.600000*%
%TD*%
%TA.AperFunction,ComponentPad*%
%ADD15R,1.700000X1.700000*%
%TD*%
%TA.AperFunction,ComponentPad*%
%ADD16C,1.700000*%
%TD*%
%TA.AperFunction,ViaPad*%
%ADD17C,0.600000*%
%TD*%
%TA.AperFunction,Conductor*%
%ADD18C,0.200000*%
%TD*%
G04 APERTURE END LIST*
D10*
%TO.P,J1,1,VBUS*%
%TO.N,3V3*%
X145030000Y-101000000D03*
D11*
%TO.P,J1,2,D-*%
%TO.N,CS*%
X145030000Y-103500000D03*
%TO.P,J1,3,D+*%
X145030000Y-105500000D03*
%TO.P,J1,4,GND*%
%TO.N,GND*%
X145030000Y-108000000D03*
%TO.P,J1,5,SSRX-*%
%TO.N,R-*%
X146530000Y-108500000D03*
%TO.P,J1,6,SSRX+*%
%TO.N,R+*%
X146530000Y-106500000D03*
%TO.P,J1,7,DRAIN*%
%TO.N,GND*%
X146530000Y-104500000D03*
%TO.P,J1,8,SSTX-*%
%TO.N,T-*%
X146530000Y-102500000D03*
%TO.P,J1,9,SSTX+*%
%TO.N,T+*%
X146530000Y-100500000D03*
D12*
%TO.P,J1,10,SHIELD*%
%TO.N,unconnected-(J1-SHIELD-Pad10)_1*%
X143030000Y-97930000D03*
%TO.N,unconnected-(J1-SHIELD-Pad10)*%
X143030000Y-111070000D03*
%TD*%
D13*
%TO.P,R1,1*%
%TO.N,R+*%
X155500000Y-105190000D03*
D14*
%TO.P,R1,2*%
%TO.N,R-*%
X155500000Y-112810000D03*
%TD*%
D15*
%TO.P,J2,1,Pin_1*%
%TO.N,SCK*%
X173525000Y-98175000D03*
D16*
%TO.P,J2,2,Pin_2*%
%TO.N,CS*%
X173525000Y-100715000D03*
%TO.P,J2,3,Pin_3*%
%TO.N,MISO*%
X173525000Y-103255000D03*
%TO.P,J2,4,Pin_4*%
%TO.N,GND*%
X173525000Y-105795000D03*
%TO.P,J2,5,Pin_5*%
%TO.N,unconnected-(J2-Pin_5-Pad5)*%
X173525000Y-108335000D03*
%TO.P,J2,6,Pin_6*%
%TO.N,3V3*%
X173525000Y-110875000D03*
%TD*%
D17*
%TO.N,SCK*%
X171221600Y-111368300D03*
%TO.N,MISO*%
X168895600Y-97657600D03*
%TO.N,GND*%
X148500000Y-98000000D03*
%TD*%
D18*
%TO.N,CS*%
X145030000Y-103500000D02*
X145030000Y-105500000D01*
%TO.N,SCK*%
X174685800Y-103754500D02*
X173915300Y-104525000D01*
X171221600Y-106448500D02*
X171221600Y-111368300D01*
X170217300Y-112372600D02*
X171221600Y-111368300D01*
X173525000Y-99326700D02*
X173812900Y-99326700D01*
X171221600Y-111368300D02*
X170217300Y-112372600D01*
X173915300Y-104525000D02*
X173145100Y-104525000D01*
X173145100Y-104525000D02*
X171221600Y-106448500D01*
X174685800Y-100199600D02*
X174685800Y-103754500D01*
X173812900Y-99326700D02*
X174685800Y-100199600D01*
X173525000Y-98175000D02*
X173525000Y-99326700D01*
%TO.N,MISO*%
X168895600Y-97657600D02*
X168895600Y-98625600D01*
X168895600Y-98625600D02*
X173525000Y-103255000D01*
X168458200Y-98095000D02*
X168895600Y-97657600D01*
X168895600Y-97657600D02*
X168458200Y-98095000D01*
%TO.N,GND*%
X147491500Y-106870500D02*
X146862000Y-107500000D01*
X145530000Y-107500000D02*
X145030000Y-108000000D01*
X146530000Y-104500000D02*
X147491500Y-105461500D01*
X147491500Y-105461500D02*
X147491500Y-106870500D01*
X146862000Y-107500000D02*
X145530000Y-107500000D01*
X148465700Y-102564300D02*
X146530000Y-104500000D01*
X148500000Y-98000000D02*
X148465700Y-98034300D01*
X148465700Y-98034300D02*
X148465700Y-102564300D01*
%TD*%
%TA.AperFunction,Conductor*%
%TO.N,GND*%
G36*
X173059075Y-105987993D02*
G01*
X173124901Y-106102007D01*
X173217993Y-106195099D01*
X173332007Y-106260925D01*
X173395590Y-106277962D01*
X172763282Y-106910269D01*
X172763282Y-106910270D01*
X172817452Y-106949626D01*
X172817451Y-106949626D01*
X172826495Y-106954234D01*
X172877292Y-107002208D01*
X172894087Y-107070029D01*
X172871550Y-107136164D01*
X172826499Y-107175202D01*
X172817182Y-107179949D01*
X172645213Y-107304890D01*
X172494890Y-107455213D01*
X172369951Y-107627179D01*
X172273444Y-107816585D01*
X172207753Y-108018760D01*
X172174500Y-108228713D01*
X172174500Y-108441286D01*
X172196252Y-108578626D01*
X172207754Y-108651243D01*
X172242650Y-108758642D01*
X172273444Y-108853414D01*
X172369951Y-109042820D01*
X172494890Y-109214786D01*
X172645213Y-109365109D01*
X172817182Y-109490050D01*
X172825946Y-109494516D01*
X172876742Y-109542491D01*
X172893536Y-109610312D01*
X172870998Y-109676447D01*
X172825946Y-109715484D01*
X172817182Y-109719949D01*
X172645213Y-109844890D01*
X172494890Y-109995213D01*
X172369951Y-110167179D01*
X172273444Y-110356585D01*
X172273443Y-110356587D01*
X172273443Y-110356588D01*
X172240598Y-110457672D01*
X172207753Y-110558760D01*
X172174500Y-110768713D01*
X172174500Y-110953606D01*
X172154815Y-111020645D01*
X172102011Y-111066400D01*
X172032853Y-111076344D01*
X171969297Y-111047319D01*
X171945701Y-111019886D01*
X171940009Y-111010887D01*
X171930994Y-110989121D01*
X171843389Y-110858011D01*
X171843209Y-110857831D01*
X171841301Y-110854814D01*
X171832111Y-110822655D01*
X171822120Y-110790747D01*
X171822100Y-110788534D01*
X171822100Y-106748597D01*
X171841785Y-106681558D01*
X171858419Y-106660916D01*
X171991778Y-106527557D01*
X172130343Y-106388991D01*
X172191664Y-106355508D01*
X172261355Y-106360492D01*
X172317289Y-106402363D01*
X172328507Y-106420379D01*
X172370375Y-106502550D01*
X172409728Y-106556716D01*
X173042037Y-105924408D01*
X173059075Y-105987993D01*
G37*
%TD.AperFunction*%
%TA.AperFunction,Conductor*%
G36*
X177942539Y-94520185D02*
G01*
X177988294Y-94572989D01*
X177999500Y-94624500D01*
X177999500Y-114875500D01*
X177979815Y-114942539D01*
X177927011Y-114988294D01*
X177875500Y-114999500D01*
X131124500Y-114999500D01*
X131057461Y-114979815D01*
X131011706Y-114927011D01*
X131000500Y-114875500D01*
X131000500Y-110927409D01*
X140854500Y-110927409D01*
X140854500Y-111212590D01*
X140885379Y-111447146D01*
X140891723Y-111495330D01*
X140945952Y-111697715D01*
X140965533Y-111770792D01*
X141074665Y-112034260D01*
X141074670Y-112034271D01*
X141217252Y-112281228D01*
X141217263Y-112281244D01*
X141390861Y-112507483D01*
X141390867Y-112507490D01*
X141592509Y-112709132D01*
X141592516Y-112709138D01*
X141634454Y-112741318D01*
X141818764Y-112882743D01*
X141818771Y-112882747D01*
X142065728Y-113025329D01*
X142065733Y-113025331D01*
X142065736Y-113025333D01*
X142329208Y-113134467D01*
X142604670Y-113208277D01*
X142816725Y-113236194D01*
X142887409Y-113245500D01*
X142887410Y-113245500D01*
X143172591Y-113245500D01*
X143229138Y-113238055D01*
X143455330Y-113208277D01*
X143730792Y-113134467D01*
X143994264Y-113025333D01*
X144241236Y-112882743D01*
X144467485Y-112709137D01*
X144468974Y-112707648D01*
X154199500Y-112707648D01*
X154199500Y-112912351D01*
X154231522Y-113114534D01*
X154294781Y-113309223D01*
X154387715Y-113491613D01*
X154508028Y-113657213D01*
X154652786Y-113801971D01*
X154807749Y-113914556D01*
X154818390Y-113922287D01*
X154934607Y-113981503D01*
X155000776Y-114015218D01*
X155000778Y-114015218D01*
X155000781Y-114015220D01*
X155105137Y-114049127D01*
X155195465Y-114078477D01*
X155296557Y-114094488D01*
X155397648Y-114110500D01*
X155397649Y-114110500D01*
X155602351Y-114110500D01*
X155602352Y-114110500D01*
X155804534Y-114078477D01*
X155999219Y-114015220D01*
X156181610Y-113922287D01*
X156274590Y-113854732D01*
X156347213Y-113801971D01*
X156347215Y-113801968D01*
X156347219Y-113801966D01*
X156491966Y-113657219D01*
X156491968Y-113657215D01*
X156491971Y-113657213D01*
X156544732Y-113584590D01*
X156612287Y-113491610D01*
X156705220Y-113309219D01*
X156768477Y-113114534D01*
X156800500Y-112912352D01*
X156800500Y-112707648D01*
X156785841Y-112615095D01*
X156768477Y-112505465D01*
X156705218Y-112310776D01*
X156644823Y-112192246D01*
X156612287Y-112128390D01*
X156575452Y-112077690D01*
X156491971Y-111962786D01*
X156347213Y-111818028D01*
X156181613Y-111697715D01*
X156181612Y-111697714D01*
X156181610Y-111697713D01*
X156124653Y-111668691D01*
X155999223Y-111604781D01*
X155804534Y-111541522D01*
X155629995Y-111513878D01*
X155602352Y-111509500D01*
X155397648Y-111509500D01*
X155373329Y-111513351D01*
X155195465Y-111541522D01*
X155000776Y-111604781D01*
X154818386Y-111697715D01*
X154652786Y-111818028D01*
X154508028Y-111962786D01*
X154387715Y-112128386D01*
X154294781Y-112310776D01*
X154231522Y-112505465D01*
X154199500Y-112707648D01*
X144468974Y-112707648D01*
X144561528Y-112615095D01*
X144669132Y-112507490D01*
X144669137Y-112507485D01*
X144842743Y-112281236D01*
X144985333Y-112034264D01*
X145094467Y-111770792D01*
X145168277Y-111495330D01*
X145205500Y-111212590D01*
X145205500Y-110927410D01*
X145168277Y-110644670D01*
X145094467Y-110369208D01*
X144985333Y-110105736D01*
X144985331Y-110105733D01*
X144985329Y-110105728D01*
X144842747Y-109858771D01*
X144842743Y-109858764D01*
X144669137Y-109632515D01*
X144669132Y-109632509D01*
X144467490Y-109430867D01*
X144467483Y-109430861D01*
X144241244Y-109257263D01*
X144241242Y-109257261D01*
X144241236Y-109257257D01*
X144241231Y-109257254D01*
X144241228Y-109257252D01*
X143994271Y-109114670D01*
X143994260Y-109114665D01*
X143730792Y-109005533D01*
X143455326Y-108931722D01*
X143172591Y-108894500D01*
X143172590Y-108894500D01*
X142887410Y-108894500D01*
X142887409Y-108894500D01*
X142604673Y-108931722D01*
X142329207Y-109005533D01*
X142065739Y-109114665D01*
X142065728Y-109114670D01*
X141818771Y-109257252D01*
X141818755Y-109257263D01*
X141592516Y-109430861D01*
X141592509Y-109430867D01*
X141390867Y-109632509D01*
X141390861Y-109632516D01*
X141217263Y-109858755D01*
X141217252Y-109858771D01*
X141074670Y-110105728D01*
X141074665Y-110105739D01*
X140965533Y-110369207D01*
X140891722Y-110644673D01*
X140854500Y-110927409D01*
X131000500Y-110927409D01*
X131000500Y-107913107D01*
X143926000Y-107913107D01*
X143926000Y-108086892D01*
X143953183Y-108258521D01*
X144006884Y-108423793D01*
X144085776Y-108578624D01*
X144085777Y-108578626D01*
X144090844Y-108585600D01*
X144090846Y-108585601D01*
X144676446Y-108000001D01*
X144676446Y-107999999D01*
X144090845Y-107414398D01*
X144090844Y-107414398D01*
X144085775Y-107421375D01*
X144006884Y-107576206D01*
X143953183Y-107741478D01*
X143926000Y-107913107D01*
X131000500Y-107913107D01*
X131000500Y-97787409D01*
X140854500Y-97787409D01*
X140854500Y-98072590D01*
X140891722Y-98355326D01*
X140965533Y-98630792D01*
X141074665Y-98894260D01*
X141074670Y-98894271D01*
X141217252Y-99141228D01*
X141217263Y-99141244D01*
X141390861Y-99367483D01*
X141390867Y-99367490D01*
X141592509Y-99569132D01*
X141592514Y-99569136D01*
X141592515Y-99569137D01*
X141818764Y-99742743D01*
X141818771Y-99742747D01*
X142065728Y-99885329D01*
X142065733Y-99885331D01*
X142065736Y-99885333D01*
X142329208Y-99994467D01*
X142604670Y-100068277D01*
X142816725Y-100096194D01*
X142887409Y-100105500D01*
X142887410Y-100105500D01*
X143172591Y-100105500D01*
X143229138Y-100098055D01*
X143455330Y-100068277D01*
X143730792Y-99994467D01*
X143850346Y-99944945D01*
X143919813Y-99937477D01*
X143982292Y-99968752D01*
X144017945Y-100028840D01*
X144015452Y-100098666D01*
X143997065Y-100133817D01*
X143982203Y-100153669D01*
X143982202Y-100153671D01*
X143931908Y-100288517D01*
X143925501Y-100348116D01*
X143925500Y-100348135D01*
X143925500Y-101651870D01*
X143925501Y-101651876D01*
X143931908Y-101711483D01*
X143982202Y-101846328D01*
X143982206Y-101846335D01*
X144068452Y-101961544D01*
X144068455Y-101961547D01*
X144183664Y-102047793D01*
X144183671Y-102047797D01*
X144318517Y-102098091D01*
X144318516Y-102098091D01*
X144325444Y-102098835D01*
X144378127Y-102104500D01*
X145329188Y-102104499D01*
X145396227Y-102124183D01*
X145441982Y-102176987D01*
X145451926Y-102246146D01*
X145451661Y-102247897D01*
X145440002Y-102321507D01*
X145410073Y-102384642D01*
X145350761Y-102421573D01*
X145293586Y-102422598D01*
X145293450Y-102423459D01*
X145204827Y-102409422D01*
X145116926Y-102395500D01*
X144943074Y-102395500D01*
X144885836Y-102404565D01*
X144771360Y-102422697D01*
X144771357Y-102422697D01*
X144606021Y-102476418D01*
X144451115Y-102555347D01*
X144407651Y-102586926D01*
X144310467Y-102657535D01*
X144310465Y-102657537D01*
X144310464Y-102657537D01*
X144187537Y-102780464D01*
X144187537Y-102780465D01*
X144187535Y-102780467D01*
X144155755Y-102824208D01*
X144085347Y-102921115D01*
X144006418Y-103076021D01*
X143952697Y-103241357D01*
X143952697Y-103241360D01*
X143933702Y-103361287D01*
X143925500Y-103413074D01*
X143925500Y-103586926D01*
X143938314Y-103667829D01*
X143952697Y-103758639D01*
X143952697Y-103758642D01*
X144006418Y-103923978D01*
X144037399Y-103984781D01*
X144085347Y-104078884D01*
X144187535Y-104219533D01*
X144187537Y-104219535D01*
X144310470Y-104342468D01*
X144378384Y-104391809D01*
X144381725Y-104396141D01*
X144386703Y-104398415D01*
X144402831Y-104423511D01*
X144421051Y-104447138D01*
X144422304Y-104453812D01*
X144424477Y-104457193D01*
X144429500Y-104492128D01*
X144429500Y-104507870D01*
X144409815Y-104574909D01*
X144378387Y-104608187D01*
X144310467Y-104657534D01*
X144187537Y-104780464D01*
X144187537Y-104780465D01*
X144187535Y-104780467D01*
X144154346Y-104826148D01*
X144085347Y-104921115D01*
X144006418Y-105076021D01*
X143952697Y-105241357D01*
X143952697Y-105241360D01*
X143925500Y-105413074D01*
X143925500Y-105586925D01*
X143952697Y-105758639D01*
X143952697Y-105758642D01*
X144006418Y-105923978D01*
X144064118Y-106037219D01*
X144085347Y-106078884D01*
X144187535Y-106219533D01*
X144310467Y-106342465D01*
X144451116Y-106444653D01*
X144564753Y-106502554D01*
X144606021Y-106523581D01*
X144771358Y-106577302D01*
X144771359Y-106577302D01*
X144771362Y-106577303D01*
X144943074Y-106604500D01*
X144943075Y-106604500D01*
X145116925Y-106604500D01*
X145116926Y-106604500D01*
X145204827Y-106590577D01*
X145293450Y-106576541D01*
X145293612Y-106577568D01*
X145300556Y-106577915D01*
X145311899Y-106574018D01*
X145334804Y-106579627D01*
X145358360Y-106580805D01*
X145368113Y-106587785D01*
X145379763Y-106590638D01*
X145396000Y-106607742D01*
X145415179Y-106621467D01*
X145420813Y-106633879D01*
X145427868Y-106641310D01*
X145437282Y-106670157D01*
X145439339Y-106674688D01*
X145439703Y-106676600D01*
X145452697Y-106758638D01*
X145459059Y-106778219D01*
X145460524Y-106785909D01*
X145457856Y-106813213D01*
X145458639Y-106840639D01*
X145454508Y-106847487D01*
X145453731Y-106855448D01*
X145436723Y-106876978D01*
X145422556Y-106900470D01*
X145415379Y-106903998D01*
X145410421Y-106910275D01*
X145384475Y-106919191D01*
X145359854Y-106931296D01*
X145351079Y-106930668D01*
X145344344Y-106932983D01*
X145328211Y-106929032D01*
X145300394Y-106927042D01*
X145288519Y-106923183D01*
X145116892Y-106896000D01*
X144943108Y-106896000D01*
X144771478Y-106923183D01*
X144606206Y-106976884D01*
X144451375Y-107055775D01*
X144444398Y-107060844D01*
X144444398Y-107060845D01*
X145033553Y-107650000D01*
X144983922Y-107650000D01*
X144894905Y-107673852D01*
X144815095Y-107719930D01*
X144749930Y-107785095D01*
X144703852Y-107864905D01*
X144680000Y-107953922D01*
X144680000Y-108046078D01*
X144703852Y-108135095D01*
X144749930Y-108214905D01*
X144815095Y-108280070D01*
X144894905Y-108326148D01*
X144983922Y-108350000D01*
X145033552Y-108350000D01*
X144444398Y-108939152D01*
X144451382Y-108944228D01*
X144606206Y-109023115D01*
X144771478Y-109076816D01*
X144943108Y-109104000D01*
X145116892Y-109104000D01*
X145288521Y-109076816D01*
X145442031Y-109026936D01*
X145511872Y-109024940D01*
X145571705Y-109061020D01*
X145582303Y-109075072D01*
X145582483Y-109074942D01*
X145585346Y-109078883D01*
X145585347Y-109078884D01*
X145687535Y-109219533D01*
X145810467Y-109342465D01*
X145951116Y-109444653D01*
X146040209Y-109490048D01*
X146106021Y-109523581D01*
X146271358Y-109577302D01*
X146271359Y-109577302D01*
X146271362Y-109577303D01*
X146443074Y-109604500D01*
X146443075Y-109604500D01*
X146616925Y-109604500D01*
X146616926Y-109604500D01*
X146788638Y-109577303D01*
X146788641Y-109577302D01*
X146788642Y-109577302D01*
X146953978Y-109523581D01*
X146953978Y-109523580D01*
X146953981Y-109523580D01*
X147108884Y-109444653D01*
X147249533Y-109342465D01*
X147372465Y-109219533D01*
X147474653Y-109078884D01*
X147553580Y-108923981D01*
X147607303Y-108758638D01*
X147634500Y-108586926D01*
X147634500Y-108413074D01*
X147607303Y-108241362D01*
X147607302Y-108241358D01*
X147607302Y-108241357D01*
X147553581Y-108076021D01*
X147524405Y-108018760D01*
X147474653Y-107921116D01*
X147372465Y-107780467D01*
X147249533Y-107657535D01*
X147170778Y-107600316D01*
X147128115Y-107544988D01*
X147122136Y-107475375D01*
X147154742Y-107413580D01*
X147170775Y-107399686D01*
X147249533Y-107342465D01*
X147372465Y-107219533D01*
X147474653Y-107078884D01*
X147553580Y-106923981D01*
X147578434Y-106847487D01*
X147607302Y-106758642D01*
X147607302Y-106758641D01*
X147607303Y-106758638D01*
X147634500Y-106586926D01*
X147634500Y-106413074D01*
X147607303Y-106241362D01*
X147607302Y-106241358D01*
X147607302Y-106241357D01*
X147553581Y-106076021D01*
X147533807Y-106037213D01*
X147474653Y-105921116D01*
X147372465Y-105780467D01*
X147249533Y-105657535D01*
X147244502Y-105653880D01*
X147162771Y-105594497D01*
X147120105Y-105539167D01*
X147112039Y-105484460D01*
X147115601Y-105439154D01*
X146764095Y-105087648D01*
X154199500Y-105087648D01*
X154199500Y-105292352D01*
X154203878Y-105319995D01*
X154231522Y-105494534D01*
X154294781Y-105689223D01*
X154341272Y-105780465D01*
X154382218Y-105860826D01*
X154387715Y-105871613D01*
X154508028Y-106037213D01*
X154652786Y-106181971D01*
X154807749Y-106294556D01*
X154818390Y-106302287D01*
X154897238Y-106342462D01*
X155000776Y-106395218D01*
X155000778Y-106395218D01*
X155000781Y-106395220D01*
X155105137Y-106429127D01*
X155195465Y-106458477D01*
X155296557Y-106474488D01*
X155397648Y-106490500D01*
X155397649Y-106490500D01*
X155602351Y-106490500D01*
X155602352Y-106490500D01*
X155804534Y-106458477D01*
X155999219Y-106395220D01*
X156181610Y-106302287D01*
X156274590Y-106234732D01*
X156347213Y-106181971D01*
X156347215Y-106181968D01*
X156347219Y-106181966D01*
X156491966Y-106037219D01*
X156491968Y-106037215D01*
X156491971Y-106037213D01*
X156544732Y-105964590D01*
X156612287Y-105871610D01*
X156705220Y-105689219D01*
X156768477Y-105494534D01*
X156800500Y-105292352D01*
X156800500Y-105087648D01*
X156787492Y-105005519D01*
X156768477Y-104885465D01*
X156713058Y-104714905D01*
X156705220Y-104690781D01*
X156705218Y-104690778D01*
X156705218Y-104690776D01*
X156646180Y-104574909D01*
X156612287Y-104508390D01*
X156572634Y-104453812D01*
X156491971Y-104342786D01*
X156347213Y-104198028D01*
X156181613Y-104077715D01*
X156181612Y-104077714D01*
X156181610Y-104077713D01*
X156124653Y-104048691D01*
X155999223Y-103984781D01*
X155804534Y-103921522D01*
X155629995Y-103893878D01*
X155602352Y-103889500D01*
X155397648Y-103889500D01*
X155373329Y-103893351D01*
X155195465Y-103921522D01*
X155000776Y-103984781D01*
X154818386Y-104077715D01*
X154652786Y-104198028D01*
X154508028Y-104342786D01*
X154387715Y-104508386D01*
X154294781Y-104690776D01*
X154231522Y-104885465D01*
X154200930Y-105078621D01*
X154199500Y-105087648D01*
X146764095Y-105087648D01*
X146526447Y-104850000D01*
X146576078Y-104850000D01*
X146665095Y-104826148D01*
X146744905Y-104780070D01*
X146810070Y-104714905D01*
X146856148Y-104635095D01*
X146880000Y-104546078D01*
X146880000Y-104499999D01*
X146883553Y-104499999D01*
X146883553Y-104500000D01*
X147469153Y-105085600D01*
X147474225Y-105078622D01*
X147474225Y-105078621D01*
X147500794Y-105026480D01*
X147553115Y-104923793D01*
X147606816Y-104758521D01*
X147634000Y-104586892D01*
X147634000Y-104413107D01*
X147606816Y-104241478D01*
X147553115Y-104076206D01*
X147474228Y-103921382D01*
X147469153Y-103914398D01*
X146883553Y-104499999D01*
X146880000Y-104499999D01*
X146880000Y-104453922D01*
X146856148Y-104364905D01*
X146810070Y-104285095D01*
X146744905Y-104219930D01*
X146665095Y-104173852D01*
X146576078Y-104150000D01*
X146526446Y-104150000D01*
X147115600Y-103560846D01*
X147112036Y-103515548D01*
X147126401Y-103447171D01*
X147162764Y-103405506D01*
X147249533Y-103342465D01*
X147372465Y-103219533D01*
X147474653Y-103078884D01*
X147553580Y-102923981D01*
X147585998Y-102824208D01*
X147607302Y-102758642D01*
X147607302Y-102758641D01*
X147607303Y-102758638D01*
X147634500Y-102586926D01*
X147634500Y-102413074D01*
X147607303Y-102241362D01*
X147607302Y-102241358D01*
X147607302Y-102241357D01*
X147553581Y-102076021D01*
X147527475Y-102024785D01*
X147474653Y-101921116D01*
X147372465Y-101780467D01*
X147249533Y-101657535D01*
X147170778Y-101600316D01*
X147128115Y-101544988D01*
X147122136Y-101475375D01*
X147154742Y-101413580D01*
X147170775Y-101399686D01*
X147249533Y-101342465D01*
X147372465Y-101219533D01*
X147474653Y-101078884D01*
X147553580Y-100923981D01*
X147577743Y-100849616D01*
X147607302Y-100758642D01*
X147607302Y-100758641D01*
X147607303Y-100758638D01*
X147634500Y-100586926D01*
X147634500Y-100413074D01*
X147607303Y-100241362D01*
X147607302Y-100241358D01*
X147607302Y-100241357D01*
X147553581Y-100076021D01*
X147512027Y-99994467D01*
X147474653Y-99921116D01*
X147372465Y-99780467D01*
X147249533Y-99657535D01*
X147108884Y-99555347D01*
X147037728Y-99519091D01*
X146953978Y-99476418D01*
X146788641Y-99422697D01*
X146659854Y-99402299D01*
X146616926Y-99395500D01*
X146443074Y-99395500D01*
X146385836Y-99404565D01*
X146271360Y-99422697D01*
X146271357Y-99422697D01*
X146106021Y-99476418D01*
X145951115Y-99555347D01*
X145932134Y-99569138D01*
X145810467Y-99657535D01*
X145810465Y-99657537D01*
X145810464Y-99657537D01*
X145687536Y-99780465D01*
X145641095Y-99844386D01*
X145585764Y-99887051D01*
X145540777Y-99895500D01*
X144407450Y-99895500D01*
X144340411Y-99875815D01*
X144294656Y-99823011D01*
X144284712Y-99753853D01*
X144313737Y-99690297D01*
X144331955Y-99673131D01*
X144467485Y-99569137D01*
X144669137Y-99367485D01*
X144842743Y-99141236D01*
X144985333Y-98894264D01*
X145094467Y-98630792D01*
X145168277Y-98355330D01*
X145192142Y-98174054D01*
X167857698Y-98174054D01*
X167898279Y-98325503D01*
X167898623Y-98326785D01*
X167977681Y-98463716D01*
X168089484Y-98575519D01*
X168185219Y-98630792D01*
X168226413Y-98654576D01*
X168232078Y-98656922D01*
X168286484Y-98700760D01*
X168304405Y-98739388D01*
X168326647Y-98822396D01*
X168336023Y-98857386D01*
X168336024Y-98857387D01*
X168357315Y-98894264D01*
X168415081Y-98994317D01*
X168533949Y-99113185D01*
X168533955Y-99113190D01*
X172191241Y-102770476D01*
X172224726Y-102831799D01*
X172221492Y-102896473D01*
X172207753Y-102938757D01*
X172174500Y-103148713D01*
X172174500Y-103361286D01*
X172201670Y-103532834D01*
X172207754Y-103571243D01*
X172241610Y-103675442D01*
X172273444Y-103773414D01*
X172369951Y-103962820D01*
X172494890Y-104134786D01*
X172502803Y-104142699D01*
X172536288Y-104204022D01*
X172531304Y-104273714D01*
X172502803Y-104318061D01*
X170741082Y-106079781D01*
X170741076Y-106079789D01*
X170729120Y-106100499D01*
X170729120Y-106100500D01*
X170662023Y-106216715D01*
X170621099Y-106369443D01*
X170621099Y-106369445D01*
X170621099Y-106537546D01*
X170621100Y-106537559D01*
X170621100Y-110788534D01*
X170601415Y-110855573D01*
X170600202Y-110857425D01*
X170512209Y-110989114D01*
X170512202Y-110989127D01*
X170451864Y-111134798D01*
X170451861Y-111134808D01*
X170420962Y-111290148D01*
X170388577Y-111352059D01*
X170387026Y-111353637D01*
X169736783Y-112003881D01*
X169736781Y-112003884D01*
X169657723Y-112140814D01*
X169650067Y-112169388D01*
X169616799Y-112293543D01*
X169616799Y-112293545D01*
X169616799Y-112451654D01*
X169616798Y-112451654D01*
X169616799Y-112451657D01*
X169657723Y-112604385D01*
X169736781Y-112741316D01*
X169848584Y-112853119D01*
X169985515Y-112932177D01*
X170138243Y-112973101D01*
X170138246Y-112973101D01*
X170296354Y-112973101D01*
X170296357Y-112973101D01*
X170449085Y-112932177D01*
X170586016Y-112853119D01*
X171236264Y-112202871D01*
X171297585Y-112169388D01*
X171299752Y-112168937D01*
X171300441Y-112168800D01*
X171300442Y-112168800D01*
X171455097Y-112138037D01*
X171600779Y-112077694D01*
X171731889Y-111990089D01*
X171843389Y-111878589D01*
X171930994Y-111747479D01*
X171991337Y-111601797D01*
X172022100Y-111447142D01*
X172022100Y-111402761D01*
X172041785Y-111335722D01*
X172094589Y-111289967D01*
X172163747Y-111280023D01*
X172227303Y-111309048D01*
X172264031Y-111364444D01*
X172273443Y-111393412D01*
X172369951Y-111582820D01*
X172494890Y-111754786D01*
X172645213Y-111905109D01*
X172817179Y-112030048D01*
X172817181Y-112030049D01*
X172817184Y-112030051D01*
X173006588Y-112126557D01*
X173208757Y-112192246D01*
X173418713Y-112225500D01*
X173418714Y-112225500D01*
X173631286Y-112225500D01*
X173631287Y-112225500D01*
X173841243Y-112192246D01*
X174043412Y-112126557D01*
X174232816Y-112030051D01*
X174268836Y-112003881D01*
X174404786Y-111905109D01*
X174404788Y-111905106D01*
X174404792Y-111905104D01*
X174555104Y-111754792D01*
X174555106Y-111754788D01*
X174555109Y-111754786D01*
X174680048Y-111582820D01*
X174680047Y-111582820D01*
X174680051Y-111582816D01*
X174776557Y-111393412D01*
X174842246Y-111191243D01*
X174875500Y-110981287D01*
X174875500Y-110768713D01*
X174842246Y-110558757D01*
X174776557Y-110356588D01*
X174680051Y-110167184D01*
X174680049Y-110167181D01*
X174680048Y-110167179D01*
X174555109Y-109995213D01*
X174404786Y-109844890D01*
X174232820Y-109719951D01*
X174232115Y-109719591D01*
X174224054Y-109715485D01*
X174173259Y-109667512D01*
X174156463Y-109599692D01*
X174178999Y-109533556D01*
X174224054Y-109494515D01*
X174232816Y-109490051D01*
X174254789Y-109474086D01*
X174404786Y-109365109D01*
X174404788Y-109365106D01*
X174404792Y-109365104D01*
X174555104Y-109214792D01*
X174555106Y-109214788D01*
X174555109Y-109214786D01*
X174680048Y-109042820D01*
X174680047Y-109042820D01*
X174680051Y-109042816D01*
X174776557Y-108853412D01*
X174842246Y-108651243D01*
X174875500Y-108441287D01*
X174875500Y-108228713D01*
X174842246Y-108018757D01*
X174776557Y-107816588D01*
X174680051Y-107627184D01*
X174680049Y-107627181D01*
X174680048Y-107627179D01*
X174555109Y-107455213D01*
X174404786Y-107304890D01*
X174232817Y-107179949D01*
X174223504Y-107175204D01*
X174172707Y-107127230D01*
X174155912Y-107059409D01*
X174178449Y-106993274D01*
X174223507Y-106954232D01*
X174232555Y-106949622D01*
X174286716Y-106910270D01*
X174286717Y-106910270D01*
X173654408Y-106277962D01*
X173717993Y-106260925D01*
X173832007Y-106195099D01*
X173925099Y-106102007D01*
X173990925Y-105987993D01*
X174007962Y-105924408D01*
X174640270Y-106556717D01*
X174640270Y-106556716D01*
X174679622Y-106502554D01*
X174776095Y-106313217D01*
X174841757Y-106111130D01*
X174841757Y-106111127D01*
X174875000Y-105901246D01*
X174875000Y-105688753D01*
X174841757Y-105478872D01*
X174841757Y-105478869D01*
X174776095Y-105276782D01*
X174679624Y-105087449D01*
X174640270Y-105033282D01*
X174640269Y-105033282D01*
X174007962Y-105665590D01*
X173990925Y-105602007D01*
X173925099Y-105487993D01*
X173832007Y-105394901D01*
X173717993Y-105329075D01*
X173654408Y-105312037D01*
X173804626Y-105161820D01*
X173865949Y-105128335D01*
X173892307Y-105125501D01*
X173994354Y-105125501D01*
X173994357Y-105125501D01*
X174147085Y-105084577D01*
X174197204Y-105055639D01*
X174284016Y-105005520D01*
X174395820Y-104893716D01*
X174395820Y-104893714D01*
X174406028Y-104883507D01*
X174406029Y-104883504D01*
X175166320Y-104123216D01*
X175245377Y-103986284D01*
X175286301Y-103833557D01*
X175286301Y-103675442D01*
X175286301Y-103667847D01*
X175286300Y-103667829D01*
X175286300Y-100288659D01*
X175286301Y-100288646D01*
X175286301Y-100120545D01*
X175286301Y-100120543D01*
X175245377Y-99967815D01*
X175203626Y-99895501D01*
X175203626Y-99895499D01*
X175166324Y-99830890D01*
X175166321Y-99830886D01*
X175166320Y-99830884D01*
X175054516Y-99719080D01*
X175054515Y-99719079D01*
X175050185Y-99714749D01*
X175050174Y-99714739D01*
X174802287Y-99466852D01*
X174768802Y-99405529D01*
X174773786Y-99335837D01*
X174790700Y-99304861D01*
X174818796Y-99267331D01*
X174869091Y-99132483D01*
X174875500Y-99072873D01*
X174875499Y-97277128D01*
X174869091Y-97217517D01*
X174842904Y-97147307D01*
X174818797Y-97082671D01*
X174818793Y-97082664D01*
X174732547Y-96967455D01*
X174732544Y-96967452D01*
X174617335Y-96881206D01*
X174617328Y-96881202D01*
X174482482Y-96830908D01*
X174482483Y-96830908D01*
X174422883Y-96824501D01*
X174422881Y-96824500D01*
X174422873Y-96824500D01*
X174422864Y-96824500D01*
X172627129Y-96824500D01*
X172627123Y-96824501D01*
X172567516Y-96830908D01*
X172432671Y-96881202D01*
X172432664Y-96881206D01*
X172317455Y-96967452D01*
X172317452Y-96967455D01*
X172231206Y-97082664D01*
X172231202Y-97082671D01*
X172180908Y-97217517D01*
X172174501Y-97277116D01*
X172174501Y-97277123D01*
X172174500Y-97277135D01*
X172174500Y-99072870D01*
X172174501Y-99072876D01*
X172180908Y-99132483D01*
X172231202Y-99267328D01*
X172231206Y-99267335D01*
X172317452Y-99382544D01*
X172317455Y-99382547D01*
X172432664Y-99468793D01*
X172432671Y-99468797D01*
X172564082Y-99517810D01*
X172620016Y-99559681D01*
X172644433Y-99625145D01*
X172629582Y-99693418D01*
X172608431Y-99721673D01*
X172494889Y-99835215D01*
X172369951Y-100007179D01*
X172273444Y-100196585D01*
X172207753Y-100398760D01*
X172174500Y-100608713D01*
X172174500Y-100755903D01*
X172154815Y-100822942D01*
X172102011Y-100868697D01*
X172032853Y-100878641D01*
X171969297Y-100849616D01*
X171962819Y-100843584D01*
X169532419Y-98413184D01*
X169517715Y-98386256D01*
X169501123Y-98360438D01*
X169500231Y-98354237D01*
X169498934Y-98351861D01*
X169496100Y-98325503D01*
X169496100Y-98237365D01*
X169515785Y-98170326D01*
X169516998Y-98168474D01*
X169604990Y-98036785D01*
X169604990Y-98036784D01*
X169604994Y-98036779D01*
X169613625Y-98015943D01*
X169665335Y-97891101D01*
X169665337Y-97891097D01*
X169696100Y-97736442D01*
X169696100Y-97578758D01*
X169696100Y-97578755D01*
X169696099Y-97578753D01*
X169665338Y-97424110D01*
X169665338Y-97424108D01*
X169665337Y-97424103D01*
X169665335Y-97424098D01*
X169604997Y-97278427D01*
X169604990Y-97278414D01*
X169517389Y-97147311D01*
X169517386Y-97147307D01*
X169405892Y-97035813D01*
X169405888Y-97035810D01*
X169274785Y-96948209D01*
X169274772Y-96948202D01*
X169129101Y-96887864D01*
X169129089Y-96887861D01*
X168974445Y-96857100D01*
X168974442Y-96857100D01*
X168816758Y-96857100D01*
X168816755Y-96857100D01*
X168662110Y-96887861D01*
X168662098Y-96887864D01*
X168516427Y-96948202D01*
X168516414Y-96948209D01*
X168385311Y-97035810D01*
X168385307Y-97035813D01*
X168273813Y-97147307D01*
X168273810Y-97147311D01*
X168186209Y-97278414D01*
X168186202Y-97278427D01*
X168125864Y-97424098D01*
X168125861Y-97424108D01*
X168094961Y-97579450D01*
X168062576Y-97641361D01*
X168061026Y-97642939D01*
X167977680Y-97726284D01*
X167898623Y-97863214D01*
X167898623Y-97863215D01*
X167857699Y-98015943D01*
X167857699Y-98015945D01*
X167857699Y-98174054D01*
X167857698Y-98174054D01*
X145192142Y-98174054D01*
X145205500Y-98072590D01*
X145205500Y-97787410D01*
X145168277Y-97504670D01*
X145094467Y-97229208D01*
X144985333Y-96965736D01*
X144985331Y-96965733D01*
X144985329Y-96965728D01*
X144842747Y-96718771D01*
X144842743Y-96718764D01*
X144669137Y-96492515D01*
X144669132Y-96492509D01*
X144467490Y-96290867D01*
X144467483Y-96290861D01*
X144241244Y-96117263D01*
X144241242Y-96117261D01*
X144241236Y-96117257D01*
X144241231Y-96117254D01*
X144241228Y-96117252D01*
X143994271Y-95974670D01*
X143994260Y-95974665D01*
X143730792Y-95865533D01*
X143455326Y-95791722D01*
X143172591Y-95754500D01*
X143172590Y-95754500D01*
X142887410Y-95754500D01*
X142887409Y-95754500D01*
X142604673Y-95791722D01*
X142329207Y-95865533D01*
X142065739Y-95974665D01*
X142065728Y-95974670D01*
X141818771Y-96117252D01*
X141818755Y-96117263D01*
X141592516Y-96290861D01*
X141592509Y-96290867D01*
X141390867Y-96492509D01*
X141390861Y-96492516D01*
X141217263Y-96718755D01*
X141217252Y-96718771D01*
X141074670Y-96965728D01*
X141074665Y-96965739D01*
X140965533Y-97229207D01*
X140891722Y-97504673D01*
X140854500Y-97787409D01*
X131000500Y-97787409D01*
X131000500Y-94624500D01*
X131020185Y-94557461D01*
X131072989Y-94511706D01*
X131124500Y-94500500D01*
X177875500Y-94500500D01*
X177942539Y-94520185D01*
G37*
%TD.AperFunction*%
%TD*%
M02*
